<?xml version="1.0" encoding="UTF-8" standalone="no"?><svg xmlns="http://www.w3.org/2000/svg" xmlns:xlink="http://www.w3.org/1999/xlink" width="48px" height="48px" viewBox="0 0 48 48" version="1.1"><title>chrome-color</title><g id="Icons" stroke="none" stroke-width="1" fill="none" fill-rule="evenodd"><g id="Color-" transform="translate(-400.000000, -1043.000000)"><g id="chrome" transform="translate(400.000000, 1043.000000)"><path d="M5.795 8.361C16.952-4.624 37.64-2.06 45.373 13.107c-5.444.002-13.969-.001-18.586 0-3.349.001-5.51-.075-7.852 1.158-2.753 1.449-4.83 4.135-5.555 7.29L5.795 8.36z" id="chrome-icon-path" fill="#EA4335"/><path d="M16.015 24c0 4.4 3.579 7.98 7.977 7.98s7.976-3.58 7.976-7.98c0-4.401-3.578-7.982-7.976-7.982s-7.977 3.58-7.977 7.981z" id="chrome-icon-path" fill="#4285F4"/><path d="M27.088 34.446c-4.477 1.33-9.717-.145-12.587-5.1A7917.733 7917.733 0 0 1 3.892 10.898C-5.322 25.02 2.62 44.264 19.346 47.55l7.742-13.103z" id="chrome-icon-path" fill="#34A853"/><path d="M31.401 16.018c3.73 3.468 4.542 9.084 2.016 13.439-1.903 3.28-7.977 13.531-10.92 18.495C39.73 49.015 52.294 32.124 46.62 16.018H31.4z" id="chrome-icon-path" fill="#FBBC05"/></g></g></g><metadata><rdf:RDF xmlns:rdf="http://www.w3.org/1999/02/22-rdf-syntax-ns#" xmlns:rdfs="http://www.w3.org/2000/01/rdf-schema#" xmlns:dc="http://purl.org/dc/elements/1.1/"><rdf:Description about="https://iconscout.com/legal#licenses" dc:title="chrome,color" dc:description="chrome,color" dc:publisher="Iconscout" dc:date="2017-09-14" dc:format="image/svg+xml" dc:language="en"><dc:creator><rdf:Bag><rdf:li>Alexis Doreau</rdf:li></rdf:Bag></dc:creator></rdf:Description></rdf:RDF></metadata></svg>