<?xml version="1.0" encoding="UTF-8"?><!DOCTYPE svg PUBLIC "-//W3C//DTD SVG 1.1//EN" "http://www.w3.org/Graphics/SVG/1.1/DTD/svg11.dtd"><svg xmlns="http://www.w3.org/2000/svg" xmlns:xlink="http://www.w3.org/1999/xlink" version="1.1" id="Layer_1" x="0px" y="0px" width="24px" height="24px" viewBox="0 0 24 24" xml:space="preserve"><path d="M15.1 8.9H9.4l.3 1.8H15.1l.1.1v.4l-.3 2.4c0 .1-.1.3-.2.4l-2.4 1.4c-.1 0-.2.1-.2.1s-.2 0-.2-.1L9.5 14c-.1-.1-.2-.2-.2-.4L9 13c0-.3.1-.5.4-.5.3 0 .5.1.5.4l.1.5 2 1.1 2-1.1.2-1.7H9.1 9s-.1 0-.1-.1v-.1s0-.1-.1-.1v-.1-.1l-.4-2.7c0-.1 0-.3.1-.4.1-.1.2-.2.4-.2h6.3c.3 0 .5.2.5.5-.1.3-.3.5-.6.5z"/><path d="M19.7.5H4.3C2.2.5.5 2.2.5 4.3v15.4c0 2.1 1.7 3.8 3.8 3.8h15.4c2.1 0 3.8-1.7 3.8-3.8V4.3c0-2.1-1.7-3.8-3.8-3.8zm-1.4 6.8l-1.1 7.8c-.1.5-.4.9-.8 1.2l-3.6 2.1c-.2.1-.5.2-.8.2-.3 0-.6-.1-.8-.2l-3.6-2.1c-.4-.2-.7-.7-.8-1.2L5.7 7.3c-.1-.5.1-1 .4-1.3.3-.3.7-.5 1.2-.5h9.4c.5 0 .9.2 1.2.5.3.3.4.8.4 1.3z"/><metadata><rdf:RDF xmlns:rdf="http://www.w3.org/1999/02/22-rdf-syntax-ns#" xmlns:rdfs="http://www.w3.org/2000/01/rdf-schema#" xmlns:dc="http://purl.org/dc/elements/1.1/"><rdf:Description about="https://iconscout.com/legal#licenses" dc:title="html,five" dc:description="html,five" dc:publisher="Iconscout" dc:date="2018-01-30" dc:format="image/svg+xml" dc:language="en"><dc:creator><rdf:Bag><rdf:li>Roundicons.com</rdf:li></rdf:Bag></dc:creator></rdf:Description></rdf:RDF></metadata></svg>