<?xml version="1.0" encoding="UTF-8"?><svg xmlns="http://www.w3.org/2000/svg" xmlns:xlink="http://www.w3.org/1999/xlink" viewBox="0 0 48 48" version="1.1"><g id="surface1"><path d="M40.277 42H7.723a3.685 3.685 0 0 1-2.715-1.203 3.883 3.883 0 0 1-.992-2.953L6.106 14.3C6.272 12.418 7.792 11 9.635 11h28.727c1.848 0 3.364 1.418 3.532 3.3l2.09 23.544a3.88 3.88 0 0 1-.989 2.953A3.7 3.7 0 0 1 40.277 42z" fill="#CFD8DC"/><path d="M36.633 38H11.367C9.512 38 8 36.379 8 34.387V30h32v4.387C40 36.379 38.488 38 36.633 38z" fill="#263238"/><path d="M36.664 34H11.336c-.918 0-1.77-.39-2.406-1.102a3.79 3.79 0 0 1-.918-2.789L9.594 9.301C9.734 7.449 11.195 6 12.914 6h22.168c1.723 0 3.184 1.45 3.324 3.3l1.582 20.81a3.774 3.774 0 0 1-.918 2.785c-.636.714-1.488 1.105-2.406 1.105z" fill="#546E7A"/><path d="M8.855 19l-.843 11.11a3.774 3.774 0 0 0 .918 2.785c.636.714 1.488 1.105 2.406 1.105h25.328c.918 0 1.77-.39 2.406-1.102a3.79 3.79 0 0 0 .918-2.789L39.145 19z" fill="#455A64"/><path d="M29.188 20c-1.934-2.266-6.708-1.879-6.708-3.39 0-.731.532-1.274 1.645-1.274 1.117 0 1.965.742 3.113.742.649 0 1.473-.27 1.473-1.191 0-1.48-3.02-1.887-4.606-1.887-2.113 0-5.105.832-5.105 4 0 1.648 1.14 2.465 2.633 3 2.012.723 4.367 1.02 4.367 2.438 0 .93-1.016 1.55-2.191 1.55-1.657 0-2.965-.988-3.88-.988-.726 0-1.929.246-1.929 1.582C18 26.687 22.828 27 24.598 27 25.652 27 30 26.371 30 22.309c0-.997-.316-1.735-.813-2.309z" fill="#FFC107"/><path d="M27.89 19h-8.035c.465.43 1.079.746 1.778 1 2.012.723 4.367 1.02 4.367 2.438 0 .93-1.016 1.55-2.191 1.55-1.657 0-2.965-.988-3.88-.988-.726 0-1.929.246-1.929 1.582C18 26.687 22.828 27 24.598 27 25.652 27 30 26.371 30 22.309c0-.997-.316-1.735-.813-2.309-.351-.414-.8-.734-1.296-1z" fill="#FFB300"/></g><metadata><rdf:RDF xmlns:rdf="http://www.w3.org/1999/02/22-rdf-syntax-ns#" xmlns:rdfs="http://www.w3.org/2000/01/rdf-schema#" xmlns:dc="http://purl.org/dc/elements/1.1/"><rdf:Description about="https://iconscout.com/legal#licenses" dc:title="sublime,text" dc:description="sublime,text" dc:publisher="Iconscout" dc:date="2017-12-15" dc:format="image/svg+xml" dc:language="en"><dc:creator><rdf:Bag><rdf:li>Icons8</rdf:li></rdf:Bag></dc:creator></rdf:Description></rdf:RDF></metadata></svg>