<svg width="1140" height="1034" viewBox="0 0 1140 1034" fill="none" xmlns="http://www.w3.org/2000/svg">
<path fill-rule="evenodd" clip-rule="evenodd" d="M879.101 82.6073C1052.25 84.5312 1227.99 -38.6511 1380.8 20.4246C1531.45 78.6649 1531.7 235.556 1581.22 354.042C1624.37 457.292 1658.09 559.311 1651.07 667.079C1643.46 783.973 1658.07 922.279 1539.07 1001.31C1419.56 1080.68 1363.08 988.528 1202 1001.31C1071.71 1011.66 1068.38 902 765.5 902C562 869 464 1001.31 324.786 934.922C228.573 860.776 203.011 757.821 155.358 662.05C94.9435 540.633 -32.9218 423.68 7.88743 298.038C49.7452 169.168 194.628 51.8912 367.42 9.164C535.387 -32.3705 701.659 80.6356 879.101 82.6073Z" fill="#F8F1F1" fill-opacity="0.97"/>
</svg>
