<svg width="965" height="1252" viewBox="0 0 965 1252" fill="none" xmlns="http://www.w3.org/2000/svg">
<path fill-rule="evenodd" clip-rule="evenodd" d="M293.359 21.456C415.981 58.79 558.68 81.3734 701 152C843.32 222.627 964.382 250.5 964.382 413.015C964.382 556.725 952.31 727.805 867.563 840.04C796.627 933.983 642.66 895.859 549.011 963.11C461.449 1025.99 425.404 1152.38 326.953 1192.66C201.543 1243.97 51.8111 1284.76 -65.3289 1214.47C-184.597 1142.89 -216.581 978.821 -260.645 840.04C-305.37 699.176 -364.039 550.813 -320.954 409.362C-277.895 267.997 -146.735 188.765 -35.3177 100.275C76.0992 11.7834 131.341 -27.8728 293.359 21.456Z" fill="#F8F1F1" fill-opacity="0.97"/>
</svg>
