<svg width="1088" height="1169" viewBox="0 0 1088 1169" fill="none" xmlns="http://www.w3.org/2000/svg">
<path id="Vector" fill-rule="evenodd" clip-rule="evenodd" d="M833.667 6.16444C1030.57 -25.3514 1235.77 69.2297 1375.58 170.407C1503.7 263.128 1533.68 398.009 1551.69 525.807C1566.56 631.298 1506.21 727.873 1468.62 830.613C1427.58 942.759 1451.31 1080.47 1322 1153.59C1191.96 1227.13 982.166 1008.73 814.5 1004C654.341 999.477 561 1040.5 411 1087.5C219.672 1147.45 57.173 1003.78 20.6772 882.307C-19.6603 748.043 -2.25823 550.421 84.1699 439.186C167.193 332.334 315.051 398.382 447.421 318.962C600.874 226.893 635.937 37.8119 833.667 6.16444Z" fill="#F8F1F1" fill-opacity="0.97"/>
</svg>
